<?xml version="1.0" encoding="UTF-8" standalone="no"?>
<svg
   xmlns:dc="http://purl.org/dc/elements/1.1/"
   xmlns:cc="http://creativecommons.org/ns#"
   xmlns:rdf="http://www.w3.org/1999/02/22-rdf-syntax-ns#"
   xmlns:svg="http://www.w3.org/2000/svg"
   xmlns="http://www.w3.org/2000/svg"
   width="1712.5344"
   height="750"
   viewBox="0 0 453.10807 198.4375"
   version="1.1"
   id="svg1167">
  <defs
     id="defs1161" />
  <metadata
     id="metadata1164">
    <rdf:RDF>
      <cc:Work
         rdf:about="">
        <dc:format>image/svg+xml</dc:format>
        <dc:type
           rdf:resource="http://purl.org/dc/dcmitype/StillImage" />
        <dc:title></dc:title>
      </cc:Work>
    </rdf:RDF>
  </metadata>
  <g
     id="layer1"
     transform="translate(15.868209,-63.129898)">
    <g
       id="surface1419520"
       transform="matrix(0.77675841,0,0,0.77675841,-42.687614,-60.814649)">
      <path
         style="fill:#ffffff;fill-opacity:1;fill-rule:nonzero;stroke:none"
         d="m 292.6875,216.5 h 15.39453 v 73.21094 H 292.6875 Z m 0,0"
         id="path1169" />
      <path
         style="fill:#ffffff;fill-opacity:1;fill-rule:nonzero;stroke:none"
         d="m 320.35547,216.5 h 14.32031 v 19.59375 h 16.36328 v 12.27344 h -16.36328 v 18.19531 c 0,6.78125 1.40234,10.875 7.32031,10.875 1.72266,0 7.85938,-0.32422 9.04297,-0.64844 v 12.92188 c -2.58203,0.53515 -8.93359,0.96875 -10.87109,0.96875 -13.89063,-0.10938 -19.8125,-8.72266 -19.8125,-24.22657 z m 0,0"
         id="path1171" />
      <path
         style="fill:#ffffff;fill-opacity:1;fill-rule:nonzero;stroke:none"
         d="m 375.16016,236.09375 v 6.78516 c 3.76953,-4.62891 8.82812,-7.42969 15.17968,-7.42969 2.04688,0 3.87891,0.21484 5.70703,0.7539 v 13.88672 c -1.72265,-0.42968 -3.44531,-0.64453 -5.27734,-0.64453 -6.56641,0 -12.48828,3.01563 -15.60937,8.1836 v 32.08203 h -14.31641 v -53.61719 z m 0,0"
         id="path1173" />
      <path
         style="fill:#ffffff;fill-opacity:1;fill-rule:nonzero;stroke:none"
         d="m 439.86719,258.37891 c -0.53516,-5.59766 -4.84375,-10.8711 -11.625,-10.8711 -7,0 -11.19532,4.95313 -12.37891,10.8711 z M 427.59766,235.125 c 15.82421,0 26.375,10.33594 27.55859,27.88281 0.10937,1.61719 0.10937,4.3086 0.10937,5.92188 h -39.1914 c 1.40234,5.0625 6.46094,9.47656 12.8164,9.47656 5.59766,0 10.44141,-3.23047 12.70313,-7 l 11.30078,5.59766 c -4.84375,8.18359 -12.80859,13.67578 -24.11328,13.67578 -18.19531,0 -28.42188,-12.48828 -28.42188,-27.88282 0,-15.07421 12.59375,-27.67187 27.23829,-27.67187"
         id="path1175" />
      <path
         style="fill:#ffffff;fill-opacity:1;fill-rule:nonzero;stroke:none"
         d="m 464.20703,236.09375 h 14.32031 v 6.03125 c 3.98438,-4.19922 9.36719,-7 16.79688,-7 10.11719,0 17.76172,7.75391 17.76172,17.65625 v 36.92969 h -14.75 v -31.22266 c 0,-8.18359 -4.41407,-9.79687 -8.28907,-9.79687 -4.30468,0 -8.18359,2.26171 -11.51953,6.45703 v 34.5625 h -14.32031 z m 0,0"
         id="path1177" />
      <path
         style="fill:#ffffff;fill-opacity:1;fill-rule:nonzero;stroke:none"
         d="m 536.88672,262.79297 c 0,7.10547 3.65625,14.53515 12.05859,14.53515 5.27344,0 10.65625,-3.98437 13.02344,-7.85937 v -13.24219 c -2.26172,-3.98047 -7.75,-7.75 -13.02344,-7.75 -8.40234,0 -12.05859,7.10547 -12.05859,14.31641 m 10.98828,28.49219 c -14.96484,0 -25.73828,-13.09375 -25.73828,-28.49219 0,-15.07031 9.79687,-27.66797 24.76172,-27.66797 6.89062,0 11.73437,2.80078 15.07031,6.56641 V 216.5 l 13.3125,0.39453 v 56.04688 c 0,3.25781 -1.35938,6.35156 -3.73047,8.58593 -4.49609,4.22657 -12.59375,10.27344 -21.71875,9.75782 z m 0,0"
         id="path1179" />
      <path
         style="fill:#ffffff;fill-opacity:1;fill-rule:nonzero;stroke:none"
         d="m 164.26953,202.96484 c -11.44531,0 -22.35547,2.3086 -32.32422,6.4375 l 13.82813,13.17969 c 5.88672,-1.67578 12.07422,-2.62891 18.49609,-2.62891 37.35938,0 67.76172,30.39844 67.76172,67.75782 0,37.36718 -30.40234,67.76562 -67.76172,67.76562 -37.36328,0 -67.761717,-30.39844 -67.761717,-67.76562 0,-5.8086 0.8125,-11.42578 2.195312,-16.8125 l -13.65625,-13.01953 c -3.515625,9.29687 -5.527344,19.32421 -5.527344,29.83203 0,46.73437 38.019529,84.74609 84.749999,84.74609 46.72656,0 84.74609,-38.01172 84.74609,-84.74609 0,-46.72657 -38.01953,-84.7461 -84.74609,-84.7461"
         id="path1181" />
      <path
         style="fill:#ffffff;fill-opacity:1;fill-rule:nonzero;stroke:none"
         d="m 117.91797,209.76953 -32.816407,34.42188 -7.996094,-7.625 32.816411,-34.42188 z m 0,0"
         id="path1183" />
      <path
         style="fill:#ffffff;fill-opacity:1;fill-rule:nonzero;stroke:none"
         d="m 133.13281,224.27344 -32.8164,34.42578 -8.000004,-7.62891 32.820314,-34.42187 z m 0,0"
         id="path1185" />
      <path
         style="fill:#ffffff;fill-opacity:1;fill-rule:nonzero;stroke:none"
         d="m 148.34766,238.77734 -32.82032,34.42578 -7.99609,-7.6289 32.81641,-34.42188 z m 0,0"
         id="path1187" />
      <path
         style="fill:#ffffff;fill-opacity:1;fill-rule:nonzero;stroke:none"
         d="m 290.79297,311.58594 h 3.48828 v 15.85937 h -3.48828 z m 0,0"
         id="path1189" />
      <path
         style="fill:#ffffff;fill-opacity:1;fill-rule:nonzero;stroke:none"
         d="m 297.49219,315.30078 h 3.44531 v 1.72266 c 0.79297,-1.01953 1.8125,-1.94922 3.55859,-1.94922 2.60157,0 4.1211,1.72265 4.1211,4.50781 v 7.86719 h -3.44141 v -6.77735 c 0,-1.63281 -0.77344,-2.46875 -2.08594,-2.46875 -1.3164,0 -2.15234,0.83594 -2.15234,2.46875 v 6.77735 h -3.44531 z m 0,0"
         id="path1191" />
      <path
         style="fill:#ffffff;fill-opacity:1;fill-rule:nonzero;stroke:none"
         d="m 310.30859,325.83984 1.47266,-2.26953 c 1.3125,0.95313 2.69531,1.45313 3.83203,1.45313 0.99219,0 1.44922,-0.36328 1.44922,-0.91016 v -0.043 c 0,-0.74609 -1.17969,-0.99609 -2.51953,-1.40625 -1.69922,-0.49609 -3.625,-1.28906 -3.625,-3.64453 v -0.0469 c 0,-2.47266 1.99609,-3.85547 4.44531,-3.85547 1.53906,0 3.21484,0.52343 4.53125,1.40625 l -1.31641,2.3789 c -1.20312,-0.69922 -2.40234,-1.1289 -3.28515,-1.1289 -0.83985,0 -1.26563,0.36328 -1.26563,0.83593 v 0.0469 c 0,0.67578 1.14844,0.99609 2.46875,1.44922 1.69922,0.5664 3.66797,1.38281 3.66797,3.60156 v 0.0469 c 0,2.69531 -2.01562,3.92187 -4.64453,3.92187 -1.69922,0 -3.60156,-0.56641 -5.21094,-1.83594"
         id="path1193" />
      <path
         style="fill:#ffffff;fill-opacity:1;fill-rule:nonzero;stroke:none"
         d="m 322.73828,324.00391 v -5.75782 h -1.45312 v -2.94531 h 1.45312 v -3.10156 h 3.44141 v 3.10156 h 2.85547 v 2.94531 h -2.85547 v 5.19141 c 0,0.79297 0.33984,1.17578 1.11328,1.17578 0.63281,0 1.19922,-0.15625 1.69922,-0.42969 v 2.76563 c -0.72657,0.42969 -1.56641,0.70312 -2.71875,0.70312 -2.10938,0 -3.53516,-0.83984 -3.53516,-3.64843"
         id="path1195" />
      <path
         style="fill:#ffffff;fill-opacity:1;fill-rule:nonzero;stroke:none"
         d="m 331.38281,315.30078 h 3.44141 v 12.14453 h -3.44141 z m -0.0937,-4.39453 h 3.625 v 3.05859 h -3.625 z m 0,0"
         id="path1197" />
      <path
         style="fill:#ffffff;fill-opacity:1;fill-rule:nonzero;stroke:none"
         d="m 338.19531,324.00391 v -5.75782 h -1.44922 v -2.94531 h 1.44922 v -3.10156 h 3.44531 v 3.10156 h 2.85547 v 2.94531 h -2.85547 v 5.19141 c 0,0.79297 0.33985,1.17578 1.10938,1.17578 0.63281,0 1.19922,-0.15625 1.69922,-0.42969 v 2.76563 c -0.72656,0.42969 -1.5625,0.70312 -2.71875,0.70312 -2.10547,0 -3.53516,-0.83984 -3.53516,-3.64843"
         id="path1199" />
      <path
         style="fill:#ffffff;fill-opacity:1;fill-rule:nonzero;stroke:none"
         d="m 346.63281,323.16406 v -7.86328 h 3.44531 v 6.77734 c 0,1.62891 0.76954,2.46875 2.08204,2.46875 1.3164,0 2.15234,-0.83984 2.15234,-2.46875 v -6.77734 h 3.44531 v 12.14453 h -3.44531 v -1.72265 c -0.79297,1.01953 -1.8125,1.94921 -3.55859,1.94921 -2.60157,0 -4.1211,-1.72265 -4.1211,-4.50781"
         id="path1201" />
      <path
         style="fill:#ffffff;fill-opacity:1;fill-rule:nonzero;stroke:none"
         d="m 361.11328,324.00391 v -5.75782 h -1.44922 v -2.94531 h 1.44922 v -3.10156 h 3.44531 v 3.10156 h 2.85547 v 2.94531 h -2.85547 v 5.19141 c 0,0.79297 0.33985,1.17578 1.10938,1.17578 0.63281,0 1.19922,-0.15625 1.69922,-0.42969 v 2.76563 c -0.72657,0.42969 -1.56641,0.70312 -2.71875,0.70312 -2.10547,0 -3.53516,-0.83984 -3.53516,-3.64843"
         id="path1203" />
      <path
         style="fill:#ffffff;fill-opacity:1;fill-rule:nonzero;stroke:none"
         d="m 378.51953,321.44141 v -0.043 c 0,-1.79297 -1.29297,-3.35938 -3.19531,-3.35938 -1.97266,0 -3.15235,1.51953 -3.15235,3.3125 v 0.0469 c 0,1.78906 1.29297,3.35156 3.19532,3.35156 1.96875,0 3.15234,-1.51563 3.15234,-3.30859 m -9.74609,0 v -0.043 c 0,-3.49219 2.80859,-6.32422 6.59375,-6.32422 3.76172,0 6.55078,2.78906 6.55078,6.27734 v 0.0469 c 0,3.48828 -2.8086,6.32031 -6.59375,6.32031 -3.76172,0 -6.55078,-2.78516 -6.55078,-6.27734"
         id="path1205" />
      <path
         style="fill:#ffffff;fill-opacity:1;fill-rule:nonzero;stroke:none"
         d="m 399.16797,321.39844 v -0.0469 c 0,-2.01953 -1.35938,-3.35156 -2.96875,-3.35156 -1.60547,0 -2.94141,1.33203 -2.94141,3.35156 v 0.0469 c 0,2.01562 1.33594,3.35156 2.94141,3.35156 1.60937,0 2.96875,-1.31641 2.96875,-3.35156 m -9.3086,-6.09766 h 3.44141 v 1.74609 c 0.83984,-1.13281 1.99219,-1.97265 3.78516,-1.97265 2.83203,0 5.53125,2.22265 5.53125,6.27734 v 0.0469 c 0,4.05468 -2.65235,6.27734 -5.53125,6.27734 -1.83594,0 -2.97266,-0.84375 -3.78516,-1.81641 v 5.21485 h -3.44141 z m 0,0"
         id="path1207" />
      <path
         style="fill:#ffffff;fill-opacity:1;fill-rule:nonzero;stroke:none"
         d="m 411.83984,323.16406 v -0.61328 c -0.58984,-0.26953 -1.36328,-0.45312 -2.19922,-0.45312 -1.47265,0 -2.3789,0.59375 -2.3789,1.67968 v 0.043 c 0,0.92969 0.76953,1.47266 1.88281,1.47266 1.60547,0 2.69531,-0.88281 2.69531,-2.12891 m -7.91015,0.79297 v -0.043 c 0,-2.65234 2.01562,-3.8789 4.89453,-3.8789 1.22656,0 2.10937,0.20703 2.96875,0.5 v -0.20313 c 0,-1.42969 -0.88281,-2.22266 -2.60547,-2.22266 -1.31641,0 -2.24219,0.25 -3.35156,0.66016 l -0.86328,-2.62891 c 1.33984,-0.58984 2.65234,-0.97656 4.71484,-0.97656 1.87891,0 3.23828,0.5 4.09766,1.35938 0.91015,0.91015 1.3164,2.24609 1.3164,3.875 v 7.04687 h -3.32812 v -1.3125 c -0.83985,0.92969 -1.9961,1.53906 -3.67188,1.53906 -2.28906,0 -4.17187,-1.3125 -4.17187,-3.71484"
         id="path1209" />
      <path
         style="fill:#ffffff;fill-opacity:1;fill-rule:nonzero;stroke:none"
         d="m 417.76172,315.30078 h 3.44531 V 317.75 c 0.69922,-1.67578 1.83203,-2.76563 3.875,-2.67578 v 3.60156 h -0.18359 c -2.28516,0 -3.69141,1.38281 -3.69141,4.28516 v 4.48828 h -3.44531 z m 0,0"
         id="path1211" />
      <path
         style="fill:#ffffff;fill-opacity:1;fill-rule:nonzero;stroke:none"
         d="m 433.63281,323.16406 v -0.61328 c -0.58984,-0.26953 -1.35937,-0.45312 -2.19922,-0.45312 -1.47265,0 -2.3789,0.59375 -2.3789,1.67968 v 0.043 c 0,0.92969 0.76953,1.47266 1.88281,1.47266 1.60937,0 2.69531,-0.88281 2.69531,-2.12891 m -7.91015,0.79297 v -0.043 c 0,-2.65234 2.01562,-3.8789 4.89453,-3.8789 1.22656,0 2.10937,0.20703 2.96875,0.5 v -0.20313 c 0,-1.42969 -0.88282,-2.22266 -2.60547,-2.22266 -1.31641,0 -2.24219,0.25 -3.35156,0.66016 l -0.86329,-2.62891 c 1.33985,-0.58984 2.65235,-0.97656 4.71485,-0.97656 1.8789,0 3.23828,0.5 4.09765,1.35938 0.91016,0.91015 1.31641,2.24609 1.31641,3.875 v 7.04687 h -3.32812 v -1.3125 c -0.83985,0.92969 -1.9961,1.53906 -3.67188,1.53906 -2.28906,0 -4.17187,-1.3125 -4.17187,-3.71484"
         id="path1213" />
      <path
         style="fill:#ffffff;fill-opacity:1;fill-rule:nonzero;stroke:none"
         d="m 445.47266,310.90625 h 3.4414 v 16.53906 h -3.4414 z m 0,0"
         id="path1215" />
      <path
         style="fill:#ffffff;fill-opacity:1;fill-rule:nonzero;stroke:none"
         d="m 458.89844,323.16406 v -0.61328 c -0.59375,-0.26953 -1.36328,-0.45312 -2.19922,-0.45312 -1.47266,0 -2.37891,0.59375 -2.37891,1.67968 v 0.043 c 0,0.92969 0.76953,1.47266 1.88281,1.47266 1.60547,0 2.69532,-0.88281 2.69532,-2.12891 m -7.91016,0.79297 v -0.043 c 0,-2.65234 2.01563,-3.8789 4.89453,-3.8789 1.22656,0 2.10938,0.20703 2.96875,0.5 v -0.20313 c 0,-1.42969 -0.88281,-2.22266 -2.60547,-2.22266 -1.3164,0 -2.24218,0.25 -3.35156,0.66016 l -0.86328,-2.62891 c 1.33984,-0.58984 2.65234,-0.97656 4.71484,-0.97656 1.87891,0 3.23828,0.5 4.09766,1.35938 0.91016,0.91015 1.31641,2.24609 1.31641,3.875 v 7.04687 h -3.32813 v -1.3125 c -0.83984,0.92969 -1.99609,1.53906 -3.67187,1.53906 -2.28907,0 -4.17188,-1.3125 -4.17188,-3.71484"
         id="path1217" />
      <path
         style="fill:#ffffff;fill-opacity:1;fill-rule:nonzero;stroke:none"
         d="m 297.66016,348.92187 c 1.69921,0 2.67187,-0.90625 2.67187,-2.24218 v -0.0469 c 0,-1.49609 -1.03906,-2.26562 -2.73828,-2.26562 H 294.125 v 4.55468 z m -7.02344,-7.70312 h 7.25 c 2.01562,0 3.58203,0.56641 4.62109,1.60937 0.88672,0.88282 1.35938,2.12891 1.35938,3.625 V 346.5 c 0,2.55859 -1.38282,4.16797 -3.39844,4.91406 l 3.875,5.66406 h -4.08203 l -3.39844,-5.07421 H 294.125 v 5.07421 h -3.48828 z m 0,0"
         id="path1219" />
      <path
         style="fill:#ffffff;fill-opacity:1;fill-rule:nonzero;stroke:none"
         d="m 314.06641,350.05469 c -0.20313,-1.53907 -1.10938,-2.58203 -2.5625,-2.58203 -1.42579,0 -2.35157,1.01953 -2.625,2.58203 z m -8.5625,1.01953 v -0.043 c 0,-3.46875 2.46875,-6.32422 6,-6.32422 4.05859,0 5.91406,3.14844 5.91406,6.59375 0,0.27344 -0.0195,0.59375 -0.043,0.90625 h -8.45313 c 0.33985,1.56641 1.42579,2.38281 2.96875,2.38281 1.15625,0 1.9961,-0.36328 2.94532,-1.25 l 1.97265,1.7461 c -1.13281,1.40625 -2.76562,2.26562 -4.96484,2.26562 -3.64453,0 -6.33984,-2.55859 -6.33984,-6.27734"
         id="path1221" />
      <path
         style="fill:#ffffff;fill-opacity:1;fill-rule:nonzero;stroke:none"
         d="m 318.50391,355.47266 1.47265,-2.26954 c 1.3125,0.95313 2.69922,1.45313 3.83203,1.45313 0.9961,0 1.44922,-0.36328 1.44922,-0.90625 v -0.0469 c 0,-0.74609 -1.17969,-0.99609 -2.51562,-1.40234 -1.70313,-0.5 -3.625,-1.29297 -3.625,-3.64844 v -0.0469 c 0,-2.46875 1.99218,-3.85156 4.4414,-3.85156 1.53907,0 3.21485,0.51953 4.53125,1.40234 l -1.3164,2.37891 c -1.19922,-0.69922 -2.39844,-1.12891 -3.28516,-1.12891 -0.83594,0 -1.26562,0.35937 -1.26562,0.83594 v 0.0469 c 0,0.67578 1.15234,0.9961 2.46875,1.44922 1.69921,0.56641 3.67187,1.38281 3.67187,3.60547 v 0.043 c 0,2.69531 -2.01953,3.92187 -4.64453,3.92187 -1.70313,0 -3.60547,-0.5664 -5.21484,-1.83593"
         id="path1223" />
      <path
         style="fill:#ffffff;fill-opacity:1;fill-rule:nonzero;stroke:none"
         d="m 330.57422,344.93359 h 3.44531 v 12.14453 h -3.44531 z m -0.0899,-4.39843 h 3.625 v 3.0625 h -3.625 z m 0,0"
         id="path1225" />
      <path
         style="fill:#ffffff;fill-opacity:1;fill-rule:nonzero;stroke:none"
         d="m 336.91797,340.53516 h 3.44531 v 16.54296 h -3.44531 z m 0,0"
         id="path1227" />
      <path
         style="fill:#ffffff;fill-opacity:1;fill-rule:nonzero;stroke:none"
         d="m 343.26172,344.93359 h 3.4414 v 12.14453 h -3.4414 z m -0.0899,-4.39843 h 3.625 v 3.0625 h -3.625 z m 0,0"
         id="path1229" />
      <path
         style="fill:#ffffff;fill-opacity:1;fill-rule:nonzero;stroke:none"
         d="m 357.42187,350.05469 c -0.20312,-1.53907 -1.10937,-2.58203 -2.55859,-2.58203 -1.42578,0 -2.35547,1.01953 -2.62891,2.58203 z m -8.5625,1.01953 v -0.043 c 0,-3.46875 2.46875,-6.32422 6.00391,-6.32422 4.05469,0 5.91406,3.14844 5.91406,6.59375 0,0.27344 -0.0195,0.59375 -0.043,0.90625 h -8.45703 c 0.34375,1.56641 1.42969,2.38281 2.97266,2.38281 1.15625,0 1.99219,-0.36328 2.94531,-1.25 l 1.96875,1.7461 c -1.13281,1.40625 -2.76172,2.26562 -4.96094,2.26562 -3.64843,0 -6.34375,-2.55859 -6.34375,-6.27734"
         id="path1231" />
      <path
         style="fill:#ffffff;fill-opacity:1;fill-rule:nonzero;stroke:none"
         d="m 362.92187,344.93359 h 3.44532 v 1.72266 c 0.78906,-1.01953 1.80859,-1.94922 3.55468,-1.94922 2.60547,0 4.1211,1.72266 4.1211,4.50781 v 7.86719 h -3.44141 v -6.77734 c 0,-1.63282 -0.76953,-2.47266 -2.08203,-2.47266 -1.31641,0 -2.15234,0.83984 -2.15234,2.47266 v 6.77734 h -3.44532 z m 0,0"
         id="path1233" />
      <path
         style="fill:#ffffff;fill-opacity:1;fill-rule:nonzero;stroke:none"
         d="m 376.05469,351.07422 v -0.043 c 0,-3.46875 2.65234,-6.32422 6.37109,-6.32422 2.28516,0 3.71484,0.76953 4.84766,2.03906 l -2.10938,2.26563 c -0.76953,-0.81641 -1.53906,-1.33594 -2.76172,-1.33594 -1.72265,0 -2.94922,1.51563 -2.94922,3.30859 v 0.0469 c 0,1.85547 1.20313,3.35156 3.08204,3.35156 1.16015,0 1.95312,-0.5 2.78906,-1.28906 l 2.01953,2.03906 c -1.18359,1.28906 -2.54297,2.21875 -4.96484,2.21875 -3.64844,0 -6.32422,-2.80859 -6.32422,-6.27734"
         id="path1235" />
      <path
         style="fill:#ffffff;fill-opacity:1;fill-rule:nonzero;stroke:none"
         d="m 389.10937,344.93359 h 3.44532 v 12.14453 h -3.44532 z m -0.0898,-4.39843 h 3.625 v 3.0625 h -3.625 z m 0,0"
         id="path1237" />
      <path
         style="fill:#ffffff;fill-opacity:1;fill-rule:nonzero;stroke:none"
         d="m 402.50391,352.79687 v -0.61328 c -0.58985,-0.26953 -1.35938,-0.45312 -2.19532,-0.45312 -1.47656,0 -2.38281,0.59375 -2.38281,1.67969 v 0.043 c 0,0.92969 0.76953,1.47266 1.88281,1.47266 1.60938,0 2.69532,-0.88281 2.69532,-2.12891 m -7.90625,0.79297 v -0.043 c 0,-2.65234 2.01562,-3.875 4.89062,-3.875 1.22656,0 2.10938,0.20313 2.96875,0.4961 v -0.20313 c 0,-1.42968 -0.87891,-2.22265 -2.60156,-2.22265 -1.31641,0 -2.2461,0.25 -3.35547,0.66015 l -0.85938,-2.6289 c 1.33594,-0.58985 2.64844,-0.97657 4.71094,-0.97657 1.87891,0 3.23828,0.5 4.09766,1.36329 0.91015,0.90625 1.3164,2.24218 1.3164,3.87109 v 7.04687 h -3.32812 v -1.3125 c -0.83984,0.92969 -1.99609,1.53907 -3.66797,1.53907 -2.29297,0 -4.17187,-1.3125 -4.17187,-3.71485"
         id="path1239" />
      <path
         style="fill:#ffffff;fill-opacity:1;fill-rule:nonzero;stroke:none"
         d="m 421.36719,352.79687 v -0.61328 c -0.58985,-0.26953 -1.35938,-0.45312 -2.19532,-0.45312 -1.47656,0 -2.38281,0.59375 -2.38281,1.67969 v 0.043 c 0,0.92969 0.76953,1.47266 1.88281,1.47266 1.60938,0 2.69532,-0.88281 2.69532,-2.12891 m -7.90625,0.79297 v -0.043 c 0,-2.65234 2.01562,-3.875 4.89453,-3.875 1.22265,0 2.10937,0.20313 2.96484,0.4961 v -0.20313 c 0,-1.42968 -0.8789,-2.22265 -2.60156,-2.22265 -1.31641,0 -2.24609,0.25 -3.35547,0.66015 l -0.85937,-2.6289 c 1.33593,-0.58985 2.65234,-0.97657 4.71484,-0.97657 1.87891,0 3.23437,0.5 4.09375,1.36329 0.91016,0.90625 1.31641,2.24218 1.31641,3.87109 v 7.04687 h -3.32813 v -1.3125 c -0.83594,0.92969 -1.99609,1.53907 -3.66797,1.53907 -2.29297,0 -4.17187,-1.3125 -4.17187,-3.71485"
         id="path1241" />
      <path
         style="fill:#ffffff;fill-opacity:1;fill-rule:nonzero;stroke:none"
         d="m 427.28906,344.93359 h 3.44922 v 1.72266 c 0.78906,-1.01953 1.80859,-1.94922 3.55469,-1.94922 2.60156,0 4.12109,1.72266 4.12109,4.50781 v 7.86719 h -3.4414 v -6.77734 c 0,-1.63282 -0.77344,-2.47266 -2.08594,-2.47266 -1.31641,0 -2.14844,0.83984 -2.14844,2.47266 v 6.77734 h -3.44922 z m 0,0"
         id="path1243" />
      <path
         style="fill:#ffffff;fill-opacity:1;fill-rule:nonzero;stroke:none"
         d="m 441.53906,353.63672 v -5.75781 h -1.44922 v -2.94532 h 1.44922 v -3.10156 h 3.44531 v 3.10156 h 2.85547 v 2.94532 h -2.85547 v 5.1914 c 0,0.79297 0.33985,1.17578 1.10938,1.17578 0.63281,0 1.20312,-0.15625 1.69922,-0.42968 v 2.76562 c -0.72656,0.42969 -1.56641,0.70313 -2.71875,0.70313 -2.10547,0 -3.53516,-0.83985 -3.53516,-3.64844"
         id="path1245" />
      <path
         style="fill:#ffffff;fill-opacity:1;fill-rule:nonzero;stroke:none"
         d="m 457.82422,350.05469 c -0.20703,-1.53907 -1.10938,-2.58203 -2.5625,-2.58203 -1.42578,0 -2.35547,1.01953 -2.625,2.58203 z m -8.56641,1.01953 v -0.043 c 0,-3.46875 2.46875,-6.32422 6.00391,-6.32422 4.05469,0 5.91406,3.14844 5.91406,6.59375 0,0.27344 -0.0195,0.59375 -0.043,0.90625 h -8.45703 c 0.34375,1.56641 1.42969,2.38281 2.97266,2.38281 1.15625,0 1.99609,-0.36328 2.94531,-1.25 l 1.97266,1.7461 c -1.13282,1.40625 -2.76563,2.26562 -4.96485,2.26562 -3.64453,0 -6.34375,-2.55859 -6.34375,-6.27734"
         id="path1247" />
      <path
         style="fill:#ffffff;fill-opacity:1;fill-rule:nonzero;stroke:none"
         d="m 475.73437,353.92969 c 2.85547,0 4.78125,-1.92578 4.78125,-4.73438 v -0.0469 c 0,-2.8086 -1.92578,-4.78125 -4.78125,-4.78125 h -2.6914 v 9.5625 z m -6.18359,-12.71094 h 6.18359 c 4.98438,0 8.4336,3.42187 8.4336,7.88281 v 0.0469 c 0,4.46484 -3.44922,7.92968 -8.4336,7.92968 h -6.18359 z m 0,0"
         id="path1249" />
      <path
         style="fill:#ffffff;fill-opacity:1;fill-rule:nonzero;stroke:none"
         d="m 494.50391,350.05469 c -0.20313,-1.53907 -1.10547,-2.58203 -2.5586,-2.58203 -1.42578,0 -2.35547,1.01953 -2.6289,2.58203 z m -8.5625,1.01953 v -0.043 c 0,-3.46875 2.46875,-6.32422 6.0039,-6.32422 4.05469,0 5.91406,3.14844 5.91406,6.59375 0,0.27344 -0.0195,0.59375 -0.043,0.90625 h -8.45704 c 0.34375,1.56641 1.42969,2.38281 2.97266,2.38281 1.15625,0 1.99609,-0.36328 2.94531,-1.25 l 1.96875,1.7461 c -1.13281,1.40625 -2.76172,2.26562 -4.96093,2.26562 -3.64844,0 -6.34375,-2.55859 -6.34375,-6.27734"
         id="path1251" />
      <path
         style="fill:#ffffff;fill-opacity:1;fill-rule:nonzero;stroke:none"
         d="m 498.94531,355.47266 1.47266,-2.26954 c 1.3125,0.95313 2.69531,1.45313 3.83203,1.45313 0.99219,0 1.44922,-0.36328 1.44922,-0.90625 v -0.0469 c 0,-0.74609 -1.17969,-0.99609 -2.51953,-1.40234 -1.69922,-0.5 -3.625,-1.29297 -3.625,-3.64844 v -0.0469 c 0,-2.46875 1.99609,-3.85156 4.44531,-3.85156 1.53906,0 3.21484,0.51953 4.53125,1.40234 l -1.31641,2.37891 c -1.20312,-0.69922 -2.40234,-1.12891 -3.28515,-1.12891 -0.83985,0 -1.26563,0.35937 -1.26563,0.83594 v 0.0469 c 0,0.67578 1.14844,0.9961 2.46875,1.44922 1.69922,0.56641 3.66797,1.38281 3.66797,3.60547 v 0.043 c 0,2.69531 -2.01562,3.92187 -4.64453,3.92187 -1.69922,0 -3.60156,-0.5664 -5.21094,-1.83593"
         id="path1253" />
      <path
         style="fill:#ffffff;fill-opacity:1;fill-rule:nonzero;stroke:none"
         d="m 518.08984,352.79687 v -0.61328 c -0.58984,-0.26953 -1.35937,-0.45312 -2.19922,-0.45312 -1.47265,0 -2.3789,0.59375 -2.3789,1.67969 v 0.043 c 0,0.92969 0.76953,1.47266 1.88281,1.47266 1.60938,0 2.69531,-0.88281 2.69531,-2.12891 m -7.91015,0.79297 v -0.043 c 0,-2.65234 2.01562,-3.875 4.89453,-3.875 1.22656,0 2.11328,0.20313 2.96875,0.4961 v -0.20313 c 0,-1.42968 -0.88281,-2.22265 -2.60156,-2.22265 -1.31641,0 -2.2461,0.25 -3.35547,0.66015 l -0.86328,-2.6289 c 1.33984,-0.58985 2.65234,-0.97657 4.71484,-0.97657 1.87891,0 3.23828,0.5 4.09766,1.36329 0.91015,0.90625 1.3164,2.24218 1.3164,3.87109 v 7.04687 h -3.32812 v -1.3125 c -0.83594,0.92969 -1.9961,1.53907 -3.66797,1.53907 -2.29297,0 -4.17578,-1.3125 -4.17578,-3.71485"
         id="path1255" />
      <path
         style="fill:#ffffff;fill-opacity:1;fill-rule:nonzero;stroke:none"
         d="m 522.98047,355.47266 1.47265,-2.26954 c 1.3125,0.95313 2.69922,1.45313 3.83204,1.45313 0.99609,0 1.44921,-0.36328 1.44921,-0.90625 v -0.0469 c 0,-0.74609 -1.17968,-0.99609 -2.51562,-1.40234 -1.70313,-0.5 -3.625,-1.29297 -3.625,-3.64844 v -0.0469 c 0,-2.46875 1.99219,-3.85156 4.44141,-3.85156 1.53906,0 3.21484,0.51953 4.53125,1.40234 l -1.31641,2.37891 c -1.19922,-0.69922 -2.39844,-1.12891 -3.28516,-1.12891 -0.83984,0 -1.26562,0.35937 -1.26562,0.83594 v 0.0469 c 0,0.67578 1.15234,0.9961 2.46875,1.44922 1.69922,0.56641 3.66797,1.38281 3.66797,3.60547 v 0.043 c 0,2.69531 -2.01563,3.92187 -4.64063,3.92187 -1.70312,0 -3.60547,-0.5664 -5.21484,-1.83593"
         id="path1257" />
      <path
         style="fill:#ffffff;fill-opacity:1;fill-rule:nonzero;stroke:none"
         d="m 535.41016,353.63672 v -5.75781 h -1.44922 v -2.94532 h 1.44922 v -3.10156 h 3.44531 v 3.10156 h 2.85547 v 2.94532 h -2.85547 v 5.1914 c 0,0.79297 0.33984,1.17578 1.10937,1.17578 0.63282,0 1.19922,-0.15625 1.69922,-0.42968 v 2.76562 c -0.72656,0.42969 -1.5664,0.70313 -2.71875,0.70313 -2.10547,0 -3.53515,-0.83985 -3.53515,-3.64844"
         id="path1259" />
      <path
         style="fill:#ffffff;fill-opacity:1;fill-rule:nonzero;stroke:none"
         d="m 544.01562,344.93359 h 3.44532 v 2.44532 c 0.70312,-1.67188 1.83593,-2.76172 3.875,-2.67188 v 3.60547 h -0.1836 c -2.28515,0 -3.6914,1.37891 -3.6914,4.28125 v 4.48828 h -3.44532 z m 0,0"
         id="path1261" />
      <path
         style="fill:#ffffff;fill-opacity:1;fill-rule:nonzero;stroke:none"
         d="m 560.92969,350.05469 c -0.20313,-1.53907 -1.10547,-2.58203 -2.5586,-2.58203 -1.42578,0 -2.35547,1.01953 -2.625,2.58203 z m -8.5625,1.01953 v -0.043 c 0,-3.46875 2.46875,-6.32422 6.0039,-6.32422 4.05469,0 5.91407,3.14844 5.91407,6.59375 0,0.27344 -0.0195,0.59375 -0.043,0.90625 h -8.45703 c 0.34375,1.56641 1.42968,2.38281 2.97265,2.38281 1.15625,0 1.9961,-0.36328 2.94531,-1.25 l 1.97266,1.7461 c -1.13672,1.40625 -2.76562,2.26562 -4.96484,2.26562 -3.64453,0 -6.34375,-2.55859 -6.34375,-6.27734"
         id="path1263" />
      <path
         style="fill:#ffffff;fill-opacity:1;fill-rule:nonzero;stroke:none"
         d="m 565.36719,355.47266 1.47265,-2.26954 c 1.3125,0.95313 2.69532,1.45313 3.83203,1.45313 0.99219,0 1.44922,-0.36328 1.44922,-0.90625 v -0.0469 c 0,-0.74609 -1.17968,-0.99609 -2.51953,-1.40234 -1.69922,-0.5 -3.625,-1.29297 -3.625,-3.64844 v -0.0469 c 0,-2.46875 1.9961,-3.85156 4.44531,-3.85156 1.53907,0 3.21485,0.51953 4.53125,1.40234 l -1.3164,2.37891 c -1.19922,-0.69922 -2.40235,-1.12891 -3.28516,-1.12891 -0.83984,0 -1.26562,0.35937 -1.26562,0.83594 v 0.0469 c 0,0.67578 1.14843,0.9961 2.46875,1.44922 1.69922,0.56641 3.66797,1.38281 3.66797,3.60547 v 0.043 c 0,2.69531 -2.01563,3.92187 -4.64454,3.92187 -1.69921,0 -3.60156,-0.5664 -5.21093,-1.83593"
         id="path1265" />
      <path
         style="fill:#3d497e;fill-opacity:1;fill-rule:nonzero;stroke:none"
         d="m 292.6875,216.5 h 15.39453 v 73.21094 H 292.6875 Z m 0,0"
         id="path1267" />
      <path
         style="fill:#3d497e;fill-opacity:1;fill-rule:nonzero;stroke:none"
         d="m 320.35547,216.5 h 14.32031 v 19.59375 h 16.36328 v 12.27344 h -16.36328 v 18.19531 c 0,6.78125 1.40234,10.875 7.32031,10.875 1.72266,0 7.85938,-0.32422 9.04297,-0.64844 v 12.92188 c -2.58203,0.53515 -8.93359,0.96875 -10.87109,0.96875 -13.89063,-0.10938 -19.8125,-8.72266 -19.8125,-24.22657 z m 0,0"
         id="path1269" />
      <path
         style="fill:#3d497e;fill-opacity:1;fill-rule:nonzero;stroke:none"
         d="m 375.16016,236.09375 v 6.78516 c 3.76953,-4.62891 8.82812,-7.42969 15.17968,-7.42969 2.04688,0 3.87891,0.21484 5.70703,0.7539 v 13.88672 c -1.72265,-0.42968 -3.44531,-0.64453 -5.27734,-0.64453 -6.56641,0 -12.48828,3.01563 -15.60937,8.1836 v 32.08203 h -14.31641 v -53.61719 z m 0,0"
         id="path1271" />
      <path
         style="fill:#3d497e;fill-opacity:1;fill-rule:nonzero;stroke:none"
         d="m 439.86719,258.37891 c -0.53516,-5.59766 -4.84375,-10.8711 -11.625,-10.8711 -7,0 -11.19532,4.95313 -12.37891,10.8711 z M 427.59766,235.125 c 15.82421,0 26.375,10.33594 27.55859,27.88281 0.10937,1.61719 0.10937,4.3086 0.10937,5.92188 h -39.1914 c 1.40234,5.0625 6.46094,9.47656 12.8164,9.47656 5.59766,0 10.44141,-3.23047 12.70313,-7 l 11.30078,5.59766 c -4.84375,8.18359 -12.80859,13.67578 -24.11328,13.67578 -18.19531,0 -28.42188,-12.48828 -28.42188,-27.88282 0,-15.07421 12.59375,-27.67187 27.23829,-27.67187"
         id="path1273" />
      <path
         style="fill:#3d497e;fill-opacity:1;fill-rule:nonzero;stroke:none"
         d="m 464.20703,236.09375 h 14.32031 v 6.03125 c 3.98438,-4.19922 9.36719,-7 16.79688,-7 10.11719,0 17.76172,7.75391 17.76172,17.65625 v 36.92969 h -14.75 v -31.22266 c 0,-8.18359 -4.41407,-9.79687 -8.28907,-9.79687 -4.30468,0 -8.18359,2.26171 -11.51953,6.45703 v 34.5625 h -14.32031 z m 0,0"
         id="path1275" />
      <path
         style="fill:#3d497e;fill-opacity:1;fill-rule:nonzero;stroke:none"
         d="m 536.88672,262.79297 c 0,7.10547 3.65625,14.53515 12.05859,14.53515 5.27344,0 10.65625,-3.98437 13.02344,-7.85937 v -13.24219 c -2.26172,-3.98047 -7.75,-7.75 -13.02344,-7.75 -8.40234,0 -12.05859,7.10547 -12.05859,14.31641 m 10.98828,28.49219 c -14.96484,0 -25.73828,-13.09375 -25.73828,-28.49219 0,-15.07031 9.79687,-27.66797 24.76172,-27.66797 6.89062,0 11.73437,2.80078 15.07031,6.56641 V 216.5 l 13.3125,0.39453 v 56.04688 c 0,3.25781 -1.35938,6.35156 -3.73047,8.58593 -4.49609,4.22657 -12.59375,10.27344 -21.71875,9.75782 z m 0,0"
         id="path1277" />
      <path
         style="fill:#3d497e;fill-opacity:1;fill-rule:nonzero;stroke:none"
         d="m 164.26953,202.96484 c -11.44531,0 -22.35547,2.3086 -32.32422,6.4375 l 13.82813,13.17969 c 5.88672,-1.67578 12.07422,-2.62891 18.49609,-2.62891 37.35938,0 67.76172,30.39844 67.76172,67.75782 0,37.36718 -30.40234,67.76562 -67.76172,67.76562 -37.36328,0 -67.761717,-30.39844 -67.761717,-67.76562 0,-5.8086 0.8125,-11.42578 2.195312,-16.8125 l -13.65625,-13.01953 c -3.515625,9.29687 -5.527344,19.32421 -5.527344,29.83203 0,46.73437 38.019529,84.74609 84.749999,84.74609 46.72656,0 84.74609,-38.01172 84.74609,-84.74609 0,-46.72657 -38.01953,-84.7461 -84.74609,-84.7461"
         id="path1279" />
      <path
         style="fill:#3d497e;fill-opacity:1;fill-rule:nonzero;stroke:none"
         d="m 117.91797,209.76953 -32.816407,34.42188 -7.996094,-7.625 32.816411,-34.42188 z m 0,0"
         id="path1281" />
      <path
         style="fill:#3d497e;fill-opacity:1;fill-rule:nonzero;stroke:none"
         d="m 133.13281,224.27344 -32.8164,34.42578 -8.000004,-7.62891 32.820314,-34.42187 z m 0,0"
         id="path1283" />
      <path
         style="fill:#3d497e;fill-opacity:1;fill-rule:nonzero;stroke:none"
         d="m 148.34766,238.77734 -32.82032,34.42578 -7.99609,-7.6289 32.81641,-34.42188 z m 0,0"
         id="path1285" />
      <path
         style="fill:#3d497e;fill-opacity:1;fill-rule:nonzero;stroke:none"
         d="m 290.79297,311.58594 h 3.48828 v 15.85937 h -3.48828 z m 0,0"
         id="path1287" />
      <path
         style="fill:#3d497e;fill-opacity:1;fill-rule:nonzero;stroke:none"
         d="m 297.49219,315.30078 h 3.44531 v 1.72266 c 0.79297,-1.01953 1.8125,-1.94922 3.55859,-1.94922 2.60157,0 4.1211,1.72265 4.1211,4.50781 v 7.86719 h -3.44141 v -6.77735 c 0,-1.63281 -0.77344,-2.46875 -2.08594,-2.46875 -1.3164,0 -2.15234,0.83594 -2.15234,2.46875 v 6.77735 h -3.44531 z m 0,0"
         id="path1289" />
      <path
         style="fill:#3d497e;fill-opacity:1;fill-rule:nonzero;stroke:none"
         d="m 310.30859,325.83984 1.47266,-2.26953 c 1.3125,0.95313 2.69531,1.45313 3.83203,1.45313 0.99219,0 1.44922,-0.36328 1.44922,-0.91016 v -0.043 c 0,-0.74609 -1.17969,-0.99609 -2.51953,-1.40625 -1.69922,-0.49609 -3.625,-1.28906 -3.625,-3.64453 v -0.0469 c 0,-2.47266 1.99609,-3.85547 4.44531,-3.85547 1.53906,0 3.21484,0.52343 4.53125,1.40625 l -1.31641,2.3789 c -1.20312,-0.69922 -2.40234,-1.1289 -3.28515,-1.1289 -0.83985,0 -1.26563,0.36328 -1.26563,0.83593 v 0.0469 c 0,0.67578 1.14844,0.99609 2.46875,1.44922 1.69922,0.5664 3.66797,1.38281 3.66797,3.60156 v 0.0469 c 0,2.69531 -2.01562,3.92187 -4.64453,3.92187 -1.69922,0 -3.60156,-0.56641 -5.21094,-1.83594"
         id="path1291" />
      <path
         style="fill:#3d497e;fill-opacity:1;fill-rule:nonzero;stroke:none"
         d="m 322.73828,324.00391 v -5.75782 h -1.45312 v -2.94531 h 1.45312 v -3.10156 h 3.44141 v 3.10156 h 2.85547 v 2.94531 h -2.85547 v 5.19141 c 0,0.79297 0.33984,1.17578 1.11328,1.17578 0.63281,0 1.19922,-0.15625 1.69922,-0.42969 v 2.76563 c -0.72657,0.42969 -1.56641,0.70312 -2.71875,0.70312 -2.10938,0 -3.53516,-0.83984 -3.53516,-3.64843"
         id="path1293" />
      <path
         style="fill:#3d497e;fill-opacity:1;fill-rule:nonzero;stroke:none"
         d="m 331.38281,315.30078 h 3.44141 v 12.14453 h -3.44141 z m -0.0937,-4.39453 h 3.625 v 3.05859 h -3.625 z m 0,0"
         id="path1295" />
      <path
         style="fill:#3d497e;fill-opacity:1;fill-rule:nonzero;stroke:none"
         d="m 338.19531,324.00391 v -5.75782 h -1.44922 v -2.94531 h 1.44922 v -3.10156 h 3.44531 v 3.10156 h 2.85547 v 2.94531 h -2.85547 v 5.19141 c 0,0.79297 0.33985,1.17578 1.10938,1.17578 0.63281,0 1.19922,-0.15625 1.69922,-0.42969 v 2.76563 c -0.72656,0.42969 -1.5625,0.70312 -2.71875,0.70312 -2.10547,0 -3.53516,-0.83984 -3.53516,-3.64843"
         id="path1297" />
      <path
         style="fill:#3d497e;fill-opacity:1;fill-rule:nonzero;stroke:none"
         d="m 346.63281,323.16406 v -7.86328 h 3.44531 v 6.77734 c 0,1.62891 0.76954,2.46875 2.08204,2.46875 1.3164,0 2.15234,-0.83984 2.15234,-2.46875 v -6.77734 h 3.44531 v 12.14453 h -3.44531 v -1.72265 c -0.79297,1.01953 -1.8125,1.94921 -3.55859,1.94921 -2.60157,0 -4.1211,-1.72265 -4.1211,-4.50781"
         id="path1299" />
      <path
         style="fill:#3d497e;fill-opacity:1;fill-rule:nonzero;stroke:none"
         d="m 361.11328,324.00391 v -5.75782 h -1.44922 v -2.94531 h 1.44922 v -3.10156 h 3.44531 v 3.10156 h 2.85547 v 2.94531 h -2.85547 v 5.19141 c 0,0.79297 0.33985,1.17578 1.10938,1.17578 0.63281,0 1.19922,-0.15625 1.69922,-0.42969 v 2.76563 c -0.72657,0.42969 -1.56641,0.70312 -2.71875,0.70312 -2.10547,0 -3.53516,-0.83984 -3.53516,-3.64843"
         id="path1301" />
      <path
         style="fill:#3d497e;fill-opacity:1;fill-rule:nonzero;stroke:none"
         d="m 378.51953,321.44141 v -0.043 c 0,-1.79297 -1.29297,-3.35938 -3.19531,-3.35938 -1.97266,0 -3.15235,1.51953 -3.15235,3.3125 v 0.0469 c 0,1.78906 1.29297,3.35156 3.19532,3.35156 1.96875,0 3.15234,-1.51563 3.15234,-3.30859 m -9.74609,0 v -0.043 c 0,-3.49219 2.80859,-6.32422 6.59375,-6.32422 3.76172,0 6.55078,2.78906 6.55078,6.27734 v 0.0469 c 0,3.48828 -2.8086,6.32031 -6.59375,6.32031 -3.76172,0 -6.55078,-2.78516 -6.55078,-6.27734"
         id="path1303" />
      <path
         style="fill:#3d497e;fill-opacity:1;fill-rule:nonzero;stroke:none"
         d="m 399.16797,321.39844 v -0.0469 c 0,-2.01953 -1.35938,-3.35156 -2.96875,-3.35156 -1.60547,0 -2.94141,1.33203 -2.94141,3.35156 v 0.0469 c 0,2.01562 1.33594,3.35156 2.94141,3.35156 1.60937,0 2.96875,-1.31641 2.96875,-3.35156 m -9.3086,-6.09766 h 3.44141 v 1.74609 c 0.83984,-1.13281 1.99219,-1.97265 3.78516,-1.97265 2.83203,0 5.53125,2.22265 5.53125,6.27734 v 0.0469 c 0,4.05468 -2.65235,6.27734 -5.53125,6.27734 -1.83594,0 -2.97266,-0.84375 -3.78516,-1.81641 v 5.21485 h -3.44141 z m 0,0"
         id="path1305" />
      <path
         style="fill:#3d497e;fill-opacity:1;fill-rule:nonzero;stroke:none"
         d="m 411.83984,323.16406 v -0.61328 c -0.58984,-0.26953 -1.36328,-0.45312 -2.19922,-0.45312 -1.47265,0 -2.3789,0.59375 -2.3789,1.67968 v 0.043 c 0,0.92969 0.76953,1.47266 1.88281,1.47266 1.60547,0 2.69531,-0.88281 2.69531,-2.12891 m -7.91015,0.79297 v -0.043 c 0,-2.65234 2.01562,-3.8789 4.89453,-3.8789 1.22656,0 2.10937,0.20703 2.96875,0.5 v -0.20313 c 0,-1.42969 -0.88281,-2.22266 -2.60547,-2.22266 -1.31641,0 -2.24219,0.25 -3.35156,0.66016 l -0.86328,-2.62891 c 1.33984,-0.58984 2.65234,-0.97656 4.71484,-0.97656 1.87891,0 3.23828,0.5 4.09766,1.35938 0.91015,0.91015 1.3164,2.24609 1.3164,3.875 v 7.04687 h -3.32812 v -1.3125 c -0.83985,0.92969 -1.9961,1.53906 -3.67188,1.53906 -2.28906,0 -4.17187,-1.3125 -4.17187,-3.71484"
         id="path1307" />
      <path
         style="fill:#3d497e;fill-opacity:1;fill-rule:nonzero;stroke:none"
         d="m 417.76172,315.30078 h 3.44531 V 317.75 c 0.69922,-1.67578 1.83203,-2.76563 3.875,-2.67578 v 3.60156 h -0.18359 c -2.28516,0 -3.69141,1.38281 -3.69141,4.28516 v 4.48828 h -3.44531 z m 0,0"
         id="path1309" />
      <path
         style="fill:#3d497e;fill-opacity:1;fill-rule:nonzero;stroke:none"
         d="m 433.63281,323.16406 v -0.61328 c -0.58984,-0.26953 -1.35937,-0.45312 -2.19922,-0.45312 -1.47265,0 -2.3789,0.59375 -2.3789,1.67968 v 0.043 c 0,0.92969 0.76953,1.47266 1.88281,1.47266 1.60937,0 2.69531,-0.88281 2.69531,-2.12891 m -7.91015,0.79297 v -0.043 c 0,-2.65234 2.01562,-3.8789 4.89453,-3.8789 1.22656,0 2.10937,0.20703 2.96875,0.5 v -0.20313 c 0,-1.42969 -0.88282,-2.22266 -2.60547,-2.22266 -1.31641,0 -2.24219,0.25 -3.35156,0.66016 l -0.86329,-2.62891 c 1.33985,-0.58984 2.65235,-0.97656 4.71485,-0.97656 1.8789,0 3.23828,0.5 4.09765,1.35938 0.91016,0.91015 1.31641,2.24609 1.31641,3.875 v 7.04687 h -3.32812 v -1.3125 c -0.83985,0.92969 -1.9961,1.53906 -3.67188,1.53906 -2.28906,0 -4.17187,-1.3125 -4.17187,-3.71484"
         id="path1311" />
      <path
         style="fill:#3d497e;fill-opacity:1;fill-rule:nonzero;stroke:none"
         d="m 445.47266,310.90625 h 3.4414 v 16.53906 h -3.4414 z m 0,0"
         id="path1313" />
      <path
         style="fill:#3d497e;fill-opacity:1;fill-rule:nonzero;stroke:none"
         d="m 458.89844,323.16406 v -0.61328 c -0.59375,-0.26953 -1.36328,-0.45312 -2.19922,-0.45312 -1.47266,0 -2.37891,0.59375 -2.37891,1.67968 v 0.043 c 0,0.92969 0.76953,1.47266 1.88281,1.47266 1.60547,0 2.69532,-0.88281 2.69532,-2.12891 m -7.91016,0.79297 v -0.043 c 0,-2.65234 2.01563,-3.8789 4.89453,-3.8789 1.22656,0 2.10938,0.20703 2.96875,0.5 v -0.20313 c 0,-1.42969 -0.88281,-2.22266 -2.60547,-2.22266 -1.3164,0 -2.24218,0.25 -3.35156,0.66016 l -0.86328,-2.62891 c 1.33984,-0.58984 2.65234,-0.97656 4.71484,-0.97656 1.87891,0 3.23828,0.5 4.09766,1.35938 0.91016,0.91015 1.31641,2.24609 1.31641,3.875 v 7.04687 h -3.32813 v -1.3125 c -0.83984,0.92969 -1.99609,1.53906 -3.67187,1.53906 -2.28907,0 -4.17188,-1.3125 -4.17188,-3.71484"
         id="path1315" />
      <path
         style="fill:#3d497e;fill-opacity:1;fill-rule:nonzero;stroke:none"
         d="m 297.66016,348.92187 c 1.69921,0 2.67187,-0.90625 2.67187,-2.24218 v -0.0469 c 0,-1.49609 -1.03906,-2.26562 -2.73828,-2.26562 H 294.125 v 4.55468 z m -7.02344,-7.70312 h 7.25 c 2.01562,0 3.58203,0.56641 4.62109,1.60937 0.88672,0.88282 1.35938,2.12891 1.35938,3.625 V 346.5 c 0,2.55859 -1.38282,4.16797 -3.39844,4.91406 l 3.875,5.66406 h -4.08203 l -3.39844,-5.07421 H 294.125 v 5.07421 h -3.48828 z m 0,0"
         id="path1317" />
      <path
         style="fill:#3d497e;fill-opacity:1;fill-rule:nonzero;stroke:none"
         d="m 314.06641,350.05469 c -0.20313,-1.53907 -1.10938,-2.58203 -2.5625,-2.58203 -1.42579,0 -2.35157,1.01953 -2.625,2.58203 z m -8.5625,1.01953 v -0.043 c 0,-3.46875 2.46875,-6.32422 6,-6.32422 4.05859,0 5.91406,3.14844 5.91406,6.59375 0,0.27344 -0.0195,0.59375 -0.043,0.90625 h -8.45313 c 0.33985,1.56641 1.42579,2.38281 2.96875,2.38281 1.15625,0 1.9961,-0.36328 2.94532,-1.25 l 1.97265,1.7461 c -1.13281,1.40625 -2.76562,2.26562 -4.96484,2.26562 -3.64453,0 -6.33984,-2.55859 -6.33984,-6.27734"
         id="path1319" />
      <path
         style="fill:#3d497e;fill-opacity:1;fill-rule:nonzero;stroke:none"
         d="m 318.50391,355.47266 1.47265,-2.26954 c 1.3125,0.95313 2.69922,1.45313 3.83203,1.45313 0.9961,0 1.44922,-0.36328 1.44922,-0.90625 v -0.0469 c 0,-0.74609 -1.17969,-0.99609 -2.51562,-1.40234 -1.70313,-0.5 -3.625,-1.29297 -3.625,-3.64844 v -0.0469 c 0,-2.46875 1.99218,-3.85156 4.4414,-3.85156 1.53907,0 3.21485,0.51953 4.53125,1.40234 l -1.3164,2.37891 c -1.19922,-0.69922 -2.39844,-1.12891 -3.28516,-1.12891 -0.83594,0 -1.26562,0.35937 -1.26562,0.83594 v 0.0469 c 0,0.67578 1.15234,0.9961 2.46875,1.44922 1.69921,0.56641 3.67187,1.38281 3.67187,3.60547 v 0.043 c 0,2.69531 -2.01953,3.92187 -4.64453,3.92187 -1.70313,0 -3.60547,-0.5664 -5.21484,-1.83593"
         id="path1321" />
      <path
         style="fill:#3d497e;fill-opacity:1;fill-rule:nonzero;stroke:none"
         d="m 330.57422,344.93359 h 3.44531 v 12.14453 h -3.44531 z m -0.0899,-4.39843 h 3.625 v 3.0625 h -3.625 z m 0,0"
         id="path1323" />
      <path
         style="fill:#3d497e;fill-opacity:1;fill-rule:nonzero;stroke:none"
         d="m 336.91797,340.53516 h 3.44531 v 16.54296 h -3.44531 z m 0,0"
         id="path1325" />
      <path
         style="fill:#3d497e;fill-opacity:1;fill-rule:nonzero;stroke:none"
         d="m 343.26172,344.93359 h 3.4414 v 12.14453 h -3.4414 z m -0.0899,-4.39843 h 3.625 v 3.0625 h -3.625 z m 0,0"
         id="path1327" />
      <path
         style="fill:#3d497e;fill-opacity:1;fill-rule:nonzero;stroke:none"
         d="m 357.42187,350.05469 c -0.20312,-1.53907 -1.10937,-2.58203 -2.55859,-2.58203 -1.42578,0 -2.35547,1.01953 -2.62891,2.58203 z m -8.5625,1.01953 v -0.043 c 0,-3.46875 2.46875,-6.32422 6.00391,-6.32422 4.05469,0 5.91406,3.14844 5.91406,6.59375 0,0.27344 -0.0195,0.59375 -0.043,0.90625 h -8.45703 c 0.34375,1.56641 1.42969,2.38281 2.97266,2.38281 1.15625,0 1.99219,-0.36328 2.94531,-1.25 l 1.96875,1.7461 c -1.13281,1.40625 -2.76172,2.26562 -4.96094,2.26562 -3.64843,0 -6.34375,-2.55859 -6.34375,-6.27734"
         id="path1329" />
      <path
         style="fill:#3d497e;fill-opacity:1;fill-rule:nonzero;stroke:none"
         d="m 362.92187,344.93359 h 3.44532 v 1.72266 c 0.78906,-1.01953 1.80859,-1.94922 3.55468,-1.94922 2.60547,0 4.1211,1.72266 4.1211,4.50781 v 7.86719 h -3.44141 v -6.77734 c 0,-1.63282 -0.76953,-2.47266 -2.08203,-2.47266 -1.31641,0 -2.15234,0.83984 -2.15234,2.47266 v 6.77734 h -3.44532 z m 0,0"
         id="path1331" />
      <path
         style="fill:#3d497e;fill-opacity:1;fill-rule:nonzero;stroke:none"
         d="m 376.05469,351.07422 v -0.043 c 0,-3.46875 2.65234,-6.32422 6.37109,-6.32422 2.28516,0 3.71484,0.76953 4.84766,2.03906 l -2.10938,2.26563 c -0.76953,-0.81641 -1.53906,-1.33594 -2.76172,-1.33594 -1.72265,0 -2.94922,1.51563 -2.94922,3.30859 v 0.0469 c 0,1.85547 1.20313,3.35156 3.08204,3.35156 1.16015,0 1.95312,-0.5 2.78906,-1.28906 l 2.01953,2.03906 c -1.18359,1.28906 -2.54297,2.21875 -4.96484,2.21875 -3.64844,0 -6.32422,-2.80859 -6.32422,-6.27734"
         id="path1333" />
      <path
         style="fill:#3d497e;fill-opacity:1;fill-rule:nonzero;stroke:none"
         d="m 389.10937,344.93359 h 3.44532 v 12.14453 h -3.44532 z m -0.0898,-4.39843 h 3.625 v 3.0625 h -3.625 z m 0,0"
         id="path1335" />
      <path
         style="fill:#3d497e;fill-opacity:1;fill-rule:nonzero;stroke:none"
         d="m 402.50391,352.79687 v -0.61328 c -0.58985,-0.26953 -1.35938,-0.45312 -2.19532,-0.45312 -1.47656,0 -2.38281,0.59375 -2.38281,1.67969 v 0.043 c 0,0.92969 0.76953,1.47266 1.88281,1.47266 1.60938,0 2.69532,-0.88281 2.69532,-2.12891 m -7.90625,0.79297 v -0.043 c 0,-2.65234 2.01562,-3.875 4.89062,-3.875 1.22656,0 2.10938,0.20313 2.96875,0.4961 v -0.20313 c 0,-1.42968 -0.87891,-2.22265 -2.60156,-2.22265 -1.31641,0 -2.2461,0.25 -3.35547,0.66015 l -0.85938,-2.6289 c 1.33594,-0.58985 2.64844,-0.97657 4.71094,-0.97657 1.87891,0 3.23828,0.5 4.09766,1.36329 0.91015,0.90625 1.3164,2.24218 1.3164,3.87109 v 7.04687 h -3.32812 v -1.3125 c -0.83984,0.92969 -1.99609,1.53907 -3.66797,1.53907 -2.29297,0 -4.17187,-1.3125 -4.17187,-3.71485"
         id="path1337" />
      <path
         style="fill:#3d497e;fill-opacity:1;fill-rule:nonzero;stroke:none"
         d="m 421.36719,352.79687 v -0.61328 c -0.58985,-0.26953 -1.35938,-0.45312 -2.19532,-0.45312 -1.47656,0 -2.38281,0.59375 -2.38281,1.67969 v 0.043 c 0,0.92969 0.76953,1.47266 1.88281,1.47266 1.60938,0 2.69532,-0.88281 2.69532,-2.12891 m -7.90625,0.79297 v -0.043 c 0,-2.65234 2.01562,-3.875 4.89453,-3.875 1.22265,0 2.10937,0.20313 2.96484,0.4961 v -0.20313 c 0,-1.42968 -0.8789,-2.22265 -2.60156,-2.22265 -1.31641,0 -2.24609,0.25 -3.35547,0.66015 l -0.85937,-2.6289 c 1.33593,-0.58985 2.65234,-0.97657 4.71484,-0.97657 1.87891,0 3.23437,0.5 4.09375,1.36329 0.91016,0.90625 1.31641,2.24218 1.31641,3.87109 v 7.04687 h -3.32813 v -1.3125 c -0.83594,0.92969 -1.99609,1.53907 -3.66797,1.53907 -2.29297,0 -4.17187,-1.3125 -4.17187,-3.71485"
         id="path1339" />
      <path
         style="fill:#3d497e;fill-opacity:1;fill-rule:nonzero;stroke:none"
         d="m 427.28906,344.93359 h 3.44922 v 1.72266 c 0.78906,-1.01953 1.80859,-1.94922 3.55469,-1.94922 2.60156,0 4.12109,1.72266 4.12109,4.50781 v 7.86719 h -3.4414 v -6.77734 c 0,-1.63282 -0.77344,-2.47266 -2.08594,-2.47266 -1.31641,0 -2.14844,0.83984 -2.14844,2.47266 v 6.77734 h -3.44922 z m 0,0"
         id="path1341" />
      <path
         style="fill:#3d497e;fill-opacity:1;fill-rule:nonzero;stroke:none"
         d="m 441.53906,353.63672 v -5.75781 h -1.44922 v -2.94532 h 1.44922 v -3.10156 h 3.44531 v 3.10156 h 2.85547 v 2.94532 h -2.85547 v 5.1914 c 0,0.79297 0.33985,1.17578 1.10938,1.17578 0.63281,0 1.20312,-0.15625 1.69922,-0.42968 v 2.76562 c -0.72656,0.42969 -1.56641,0.70313 -2.71875,0.70313 -2.10547,0 -3.53516,-0.83985 -3.53516,-3.64844"
         id="path1343" />
      <path
         style="fill:#3d497e;fill-opacity:1;fill-rule:nonzero;stroke:none"
         d="m 457.82422,350.05469 c -0.20703,-1.53907 -1.10938,-2.58203 -2.5625,-2.58203 -1.42578,0 -2.35547,1.01953 -2.625,2.58203 z m -8.56641,1.01953 v -0.043 c 0,-3.46875 2.46875,-6.32422 6.00391,-6.32422 4.05469,0 5.91406,3.14844 5.91406,6.59375 0,0.27344 -0.0195,0.59375 -0.043,0.90625 h -8.45703 c 0.34375,1.56641 1.42969,2.38281 2.97266,2.38281 1.15625,0 1.99609,-0.36328 2.94531,-1.25 l 1.97266,1.7461 c -1.13282,1.40625 -2.76563,2.26562 -4.96485,2.26562 -3.64453,0 -6.34375,-2.55859 -6.34375,-6.27734"
         id="path1345" />
      <path
         style="fill:#3d497e;fill-opacity:1;fill-rule:nonzero;stroke:none"
         d="m 475.73437,353.92969 c 2.85547,0 4.78125,-1.92578 4.78125,-4.73438 v -0.0469 c 0,-2.8086 -1.92578,-4.78125 -4.78125,-4.78125 h -2.6914 v 9.5625 z m -6.18359,-12.71094 h 6.18359 c 4.98438,0 8.4336,3.42187 8.4336,7.88281 v 0.0469 c 0,4.46484 -3.44922,7.92968 -8.4336,7.92968 h -6.18359 z m 0,0"
         id="path1347" />
      <path
         style="fill:#3d497e;fill-opacity:1;fill-rule:nonzero;stroke:none"
         d="m 494.50391,350.05469 c -0.20313,-1.53907 -1.10547,-2.58203 -2.5586,-2.58203 -1.42578,0 -2.35547,1.01953 -2.6289,2.58203 z m -8.5625,1.01953 v -0.043 c 0,-3.46875 2.46875,-6.32422 6.0039,-6.32422 4.05469,0 5.91406,3.14844 5.91406,6.59375 0,0.27344 -0.0195,0.59375 -0.043,0.90625 h -8.45704 c 0.34375,1.56641 1.42969,2.38281 2.97266,2.38281 1.15625,0 1.99609,-0.36328 2.94531,-1.25 l 1.96875,1.7461 c -1.13281,1.40625 -2.76172,2.26562 -4.96093,2.26562 -3.64844,0 -6.34375,-2.55859 -6.34375,-6.27734"
         id="path1349" />
      <path
         style="fill:#3d497e;fill-opacity:1;fill-rule:nonzero;stroke:none"
         d="m 498.94531,355.47266 1.47266,-2.26954 c 1.3125,0.95313 2.69531,1.45313 3.83203,1.45313 0.99219,0 1.44922,-0.36328 1.44922,-0.90625 v -0.0469 c 0,-0.74609 -1.17969,-0.99609 -2.51953,-1.40234 -1.69922,-0.5 -3.625,-1.29297 -3.625,-3.64844 v -0.0469 c 0,-2.46875 1.99609,-3.85156 4.44531,-3.85156 1.53906,0 3.21484,0.51953 4.53125,1.40234 l -1.31641,2.37891 c -1.20312,-0.69922 -2.40234,-1.12891 -3.28515,-1.12891 -0.83985,0 -1.26563,0.35937 -1.26563,0.83594 v 0.0469 c 0,0.67578 1.14844,0.9961 2.46875,1.44922 1.69922,0.56641 3.66797,1.38281 3.66797,3.60547 v 0.043 c 0,2.69531 -2.01562,3.92187 -4.64453,3.92187 -1.69922,0 -3.60156,-0.5664 -5.21094,-1.83593"
         id="path1351" />
      <path
         style="fill:#3d497e;fill-opacity:1;fill-rule:nonzero;stroke:none"
         d="m 518.08984,352.79687 v -0.61328 c -0.58984,-0.26953 -1.35937,-0.45312 -2.19922,-0.45312 -1.47265,0 -2.3789,0.59375 -2.3789,1.67969 v 0.043 c 0,0.92969 0.76953,1.47266 1.88281,1.47266 1.60938,0 2.69531,-0.88281 2.69531,-2.12891 m -7.91015,0.79297 v -0.043 c 0,-2.65234 2.01562,-3.875 4.89453,-3.875 1.22656,0 2.11328,0.20313 2.96875,0.4961 v -0.20313 c 0,-1.42968 -0.88281,-2.22265 -2.60156,-2.22265 -1.31641,0 -2.2461,0.25 -3.35547,0.66015 l -0.86328,-2.6289 c 1.33984,-0.58985 2.65234,-0.97657 4.71484,-0.97657 1.87891,0 3.23828,0.5 4.09766,1.36329 0.91015,0.90625 1.3164,2.24218 1.3164,3.87109 v 7.04687 h -3.32812 v -1.3125 c -0.83594,0.92969 -1.9961,1.53907 -3.66797,1.53907 -2.29297,0 -4.17578,-1.3125 -4.17578,-3.71485"
         id="path1353" />
      <path
         style="fill:#3d497e;fill-opacity:1;fill-rule:nonzero;stroke:none"
         d="m 522.98047,355.47266 1.47265,-2.26954 c 1.3125,0.95313 2.69922,1.45313 3.83204,1.45313 0.99609,0 1.44921,-0.36328 1.44921,-0.90625 v -0.0469 c 0,-0.74609 -1.17968,-0.99609 -2.51562,-1.40234 -1.70313,-0.5 -3.625,-1.29297 -3.625,-3.64844 v -0.0469 c 0,-2.46875 1.99219,-3.85156 4.44141,-3.85156 1.53906,0 3.21484,0.51953 4.53125,1.40234 l -1.31641,2.37891 c -1.19922,-0.69922 -2.39844,-1.12891 -3.28516,-1.12891 -0.83984,0 -1.26562,0.35937 -1.26562,0.83594 v 0.0469 c 0,0.67578 1.15234,0.9961 2.46875,1.44922 1.69922,0.56641 3.66797,1.38281 3.66797,3.60547 v 0.043 c 0,2.69531 -2.01563,3.92187 -4.64063,3.92187 -1.70312,0 -3.60547,-0.5664 -5.21484,-1.83593"
         id="path1355" />
      <path
         style="fill:#3d497e;fill-opacity:1;fill-rule:nonzero;stroke:none"
         d="m 535.41016,353.63672 v -5.75781 h -1.44922 v -2.94532 h 1.44922 v -3.10156 h 3.44531 v 3.10156 h 2.85547 v 2.94532 h -2.85547 v 5.1914 c 0,0.79297 0.33984,1.17578 1.10937,1.17578 0.63282,0 1.19922,-0.15625 1.69922,-0.42968 v 2.76562 c -0.72656,0.42969 -1.5664,0.70313 -2.71875,0.70313 -2.10547,0 -3.53515,-0.83985 -3.53515,-3.64844"
         id="path1357" />
      <path
         style="fill:#3d497e;fill-opacity:1;fill-rule:nonzero;stroke:none"
         d="m 544.01562,344.93359 h 3.44532 v 2.44532 c 0.70312,-1.67188 1.83593,-2.76172 3.875,-2.67188 v 3.60547 h -0.1836 c -2.28515,0 -3.6914,1.37891 -3.6914,4.28125 v 4.48828 h -3.44532 z m 0,0"
         id="path1359" />
      <path
         style="fill:#3d497e;fill-opacity:1;fill-rule:nonzero;stroke:none"
         d="m 560.92969,350.05469 c -0.20313,-1.53907 -1.10547,-2.58203 -2.5586,-2.58203 -1.42578,0 -2.35547,1.01953 -2.625,2.58203 z m -8.5625,1.01953 v -0.043 c 0,-3.46875 2.46875,-6.32422 6.0039,-6.32422 4.05469,0 5.91407,3.14844 5.91407,6.59375 0,0.27344 -0.0195,0.59375 -0.043,0.90625 h -8.45703 c 0.34375,1.56641 1.42968,2.38281 2.97265,2.38281 1.15625,0 1.9961,-0.36328 2.94531,-1.25 l 1.97266,1.7461 c -1.13672,1.40625 -2.76562,2.26562 -4.96484,2.26562 -3.64453,0 -6.34375,-2.55859 -6.34375,-6.27734"
         id="path1361" />
      <path
         style="fill:#3d497e;fill-opacity:1;fill-rule:nonzero;stroke:none"
         d="m 565.36719,355.47266 1.47265,-2.26954 c 1.3125,0.95313 2.69532,1.45313 3.83203,1.45313 0.99219,0 1.44922,-0.36328 1.44922,-0.90625 v -0.0469 c 0,-0.74609 -1.17968,-0.99609 -2.51953,-1.40234 -1.69922,-0.5 -3.625,-1.29297 -3.625,-3.64844 v -0.0469 c 0,-2.46875 1.9961,-3.85156 4.44531,-3.85156 1.53907,0 3.21485,0.51953 4.53125,1.40234 l -1.3164,2.37891 c -1.19922,-0.69922 -2.40235,-1.12891 -3.28516,-1.12891 -0.83984,0 -1.26562,0.35937 -1.26562,0.83594 v 0.0469 c 0,0.67578 1.14843,0.9961 2.46875,1.44922 1.69922,0.56641 3.66797,1.38281 3.66797,3.60547 v 0.043 c 0,2.69531 -2.01563,3.92187 -4.64454,3.92187 -1.69921,0 -3.60156,-0.5664 -5.21093,-1.83593"
         id="path1363" />
    </g>
  </g>
</svg>
